<svg xmlns="http://www.w3.org/2000/svg" width="700" height="120" viewBox="0 0 700 120">
  <style>
    @import url('https://fonts.googleapis.com/css2?family=Inter:wght@800&amp;display=swap');
  </style>
  <!-- NHL Shield inline (scaled from 960x640 to fit ~70px tall) -->
  <g transform="translate(150, 8) scale(0.105)">
    <path fill="#e0e0e0" d="M234.565 232.14c0 66.459-33.888 81.58-33.888 155.382 0 106.34 82.222 175.912 158.628 195.573 38.606 9.396 50.26 10.036 85.125 18.61C447.286 604.77 479.997 640 479.997 640s32.712-35.231 35.567-38.294c34.856-8.575 46.52-9.215 85.126-18.611 76.399-19.66 158.635-89.233 158.635-195.573 0-73.802-33.9-88.923-33.9-155.383 0-24 5.074-47.684 15.076-70.384l21.663-49.159-51.047-15.043c-15.563-4.603-27.01-16.663-34.02-35.83L654.539 0l-50.316 41.653c-13.33 11.048-26.842 16.648-40.163 16.648-17.82 0-38.092-8.663-51.653-22.08l-32.41-32.066-32.409 32.066c-13.558 13.417-33.836 22.08-51.638 22.08-13.337 0-26.85-5.6-40.187-16.648L305.447 0 282.9 61.723c-6.995 19.167-18.45 31.227-34.027 35.83l-51.036 15.043 21.657 49.159c10 22.7 15.072 46.384 15.072 70.384z"/>
    <path fill="#FFF" d="M708.756 105.552c-18.244-5.375-31.54-19.167-39.503-40.968l-18.489-50.609-41.203 34.115C596 59.32 580.509 66.66 564.06 66.66c-22.061 0-43.886-11.015-57.526-24.504l-26.537-26.25-26.537 26.25c-13.64 13.489-35.463 24.504-57.51 24.504-16.464 0-31.962-7.339-45.507-18.569l-41.206-34.115-18.49 50.61c-7.968 21.8-21.256 35.592-39.5 40.967l-41.935 12.373 17.819 40.464c8.981 20.38 15.783 45.434 15.783 73.75 0 69.116-33.894 82.844-33.894 155.383 0 22.126 3.762 42.817 10.513 61.848 22.846 64.5 80.029 109.733 141.863 125.64 39.563 9.999 58.004 10.989 87.5 19.23 3.846 4.045 31.101 33.5 31.101 33.5s27.257-29.456 31.102-33.5c29.498-8.241 47.921-9.231 87.518-19.23 80.044-20.605 152.356-90.369 152.356-187.488 0-34.955-7.887-56.26-16.032-76.688-8.765-21.95-17.866-42.88-17.866-78.695 0-28.316 6.803-53.37 15.784-73.75l17.82-40.464-41.923-12.373z"/>
    <path fill="#0a0a0a" d="M260.905 252.2c-5.581 55.093-32.841 77.182-32.841 135.322 0 71.339 48.877 146.207 138.077 168.765 42.38 10.72 71.644 13.45 93.172 21.208 2.761 2.594 20.684 22.026 20.684 22.026s17.914-19.432 20.676-22.026c21.546-7.759 50.802-10.489 93.18-21.208 89.202-22.558 138.073-97.426 138.073-168.765 0-64.755-33.835-84.768-33.835-155.51 0-55.15 26.322-101.733 26.322-101.733s-64.696-5.647-82.232-84.287c0 0-38.794 39.955-78.121 39.955-50.697 0-84.063-43.09-84.063-43.09s-33.35 43.09-84.047 43.09c-39.34 0-78.138-39.955-78.138-39.955-17.532 78.64-82.23 84.287-82.23 84.287s26.33 46.583 26.33 101.732c0 7.236-.379 13.912-1.007 20.19z"/>
    <g fill="#0a0a0a"><path d="M371.98 515.462c1.412.407 2.824.79 4.236 1.149 37.353 9.51 83.057 14.408 96.866 22.265 3.11 2.281 6.915 6.326 6.915 6.326s3.804-4.045 6.917-6.326c13.804-7.857 59.502-12.755 96.866-22.265 51.775-13.162 107.514-59.138 107.514-129.089 0-34.859-15.29-57.798-25.326-92.83L371.98 515.461zM272.593 357.45l308.832-231.916a113.005 113.005 0 0 1-17.365 1.365c-37.737 0-67.201-16.472-84.063-28.852-16.853 12.38-46.329 28.852-84.047 28.852-24.903 0-46.105-8.433-61.045-16.793-13.92 23.212-31.365 36.7-45.266 44.325 5.965 17.892 12.922 45.547 12.922 77.58 0 61.642-21.059 90.54-29.968 125.439zM344.62 504.578l315.43-236.863c-1.635-10.641-2.608-22.415-2.608-35.704 0-32.033 6.931-59.688 12.915-77.58-11.917-6.524-26.42-17.364-39.071-34.913L268.78 391.749c1.73 53.538 36.317 92.535 75.84 112.83z"/></g>
    <g fill="#e0e0e0"><path d="M403.414 391.973 369.546 340.1l-37.607 28.244s13.168.367 13.168 14.166v97.674l26.547-19.936V391.19l30.254 46.326 28.038-21.049V294.747l-26.532 19.923v77.303zM511.02 278.85l-29.945 22.476V256.34l-40.424 30.366s13.159.368 13.159 14.174v97.665l27.265-20.477v-44.516l29.945-22.477v44.517l25.954-19.495V214.369l-25.955 19.51v44.971zM586.888 267.547v-90.652l-40.438 30.367s13.162.365 13.162 14.157v97.68l75.28-56.538c-1.62-19.478 0-31.06 0-31.06l-48.004 36.046z"/></g>
  </g>
  <!-- "Player Dashboard" text next to shield -->
  <text x="260" y="58" font-family="'Inter', system-ui, sans-serif" font-size="36" font-weight="800" letter-spacing="-0.5" fill="#e0e0e0">
    <tspan fill="#60a5fa">Player</tspan> Dashboard
  </text>
</svg>
